<svg id="Layer_1" data-name="Layer 1" xmlns="http://www.w3.org/2000/svg" viewBox="0 0 319.03 128.05"><defs><style>.cls-1{fill:none;}.cls-2,.cls-3{fill:#0d3692;}.cls-3{fill-rule:evenodd;}.cls-4{fill:#ffc211;}</style></defs><path class="cls-1" d="M85,31.34H282.73s7.83-.42,7.83,8.8V86.71s.6,8.82-7.83,8.82H85S99.93,83.94,99.93,63.6,85,31.34,85,31.34Z" transform="translate(0 -0.09)"/><path class="cls-2" d="M282.73,96.51H82.16l2.24-1.75C84.55,94.65,99,83.2,99,63.6S84.54,32.22,84.39,32.11l-2.18-1.75H282.88c.89,0,8.66.28,8.66,9.78V86.68c0,.46.17,4.57-2.43,7.36A8.35,8.35,0,0,1,282.73,96.51Zm-195.15-2H282.73a6.48,6.48,0,0,0,4.95-1.86c2.13-2.28,1.91-5.89,1.91-5.93V40.14c0-7.26-5.14-7.82-6.71-7.82H87.54c4.12,4,13.37,14.94,13.37,31.28A43.46,43.46,0,0,1,87.58,94.56Z" transform="translate(0 -0.09)"/><path class="cls-2" d="M110.44,43.58h1.11v7.2c0,2.71,1.27,3.73,3.4,3.73s3.44-1,3.43-3.73v-7.2h1.11V51c0,2.4-1.29,4.44-4.54,4.44s-4.51-2-4.51-4.44Z" transform="translate(0 -0.09)"/><path class="cls-2" d="M122,43.58h1.24L130,53.42h0V43.58h1.11V55.21h-1.24l-6.78-9.84h0v9.84H122Z" transform="translate(0 -0.09)"/><path class="cls-2" d="M133.77,43.58h1.11V55.21h-1.11Z" transform="translate(0 -0.09)"/><path class="cls-2" d="M136.26,43.58h1.2L141.24,54h0L145,43.58h1.18l-4.33,11.63h-1.28Z" transform="translate(0 -0.09)"/><path class="cls-2" d="M147.46,43.58h8v.94h-6.94v4.21h6.5v.94h-6.5v4.6h7v.94h-8.13Z" transform="translate(0 -0.09)"/><path class="cls-2" d="M157.38,43.58h5.33c1.92,0,3.54.92,3.54,3a2.79,2.79,0,0,1-2.27,3v0c1.52.19,2,1.23,2,2.62,0,.8,0,2.39.54,3h-1.22A4.52,4.52,0,0,1,165,53.4c-.1-1.63-.23-3.44-2.33-3.36h-4.21v5.17h-1.11Zm1.11,5.52h4.14a2.31,2.31,0,0,0,2.51-2.26,2.2,2.2,0,0,0-2.51-2.32h-4.14Z" transform="translate(0 -0.09)"/><path class="cls-2" d="M169,51.38c-.05,2.4,1.68,3.13,3.8,3.13,1.23,0,3.08-.67,3.08-2.36,0-1.32-1.32-1.84-2.39-2.11l-2.6-.63c-1.37-.34-2.62-1-2.62-2.8,0-1.14.73-3.28,4-3.28,2.3,0,4.32,1.24,4.3,3.62h-1.1c-.07-1.78-1.54-2.67-3.19-2.67s-2.91.59-2.91,2.31c0,1.09.81,1.55,1.76,1.78l2.83.7c1.65.44,3,1.15,3,3.06,0,.8-.32,3.33-4.45,3.33-2.76,0-4.78-1.24-4.65-4.08Z" transform="translate(0 -0.09)"/><path class="cls-2" d="M179.1,43.58h1.11V55.21H179.1Z" transform="translate(0 -0.09)"/><path class="cls-2" d="M181.63,43.58h9.23v.94h-4.07V55.21h-1.1V44.52h-4.06Z" transform="translate(0 -0.09)"/><path class="cls-2" d="M195.76,50.42l-4.58-6.84h1.32l3.83,5.89,3.82-5.89h1.32l-4.6,6.84v4.79h-1.11Z" transform="translate(0 -0.09)"/><path class="cls-2" d="M212.38,43.33c3.65,0,5.48,2.89,5.48,6.06s-1.83,6.07-5.48,6.07-5.5-2.89-5.5-6.07S208.71,43.33,212.38,43.33Zm0,11.18c3.06,0,4.37-2.57,4.37-5.12s-1.31-5.11-4.37-5.11S208,46.85,208,49.39,209.3,54.51,212.38,54.51Z" transform="translate(0 -0.09)"/><path class="cls-2" d="M219.83,43.58h7.39v.94h-6.28v4.21h5.58v.94h-5.58v5.54h-1.11Z" transform="translate(0 -0.09)"/><path class="cls-2" d="M233.61,43.58h4.92c2,0,3.74.68,3.74,2.85a2.66,2.66,0,0,1-2,2.61v0a2.72,2.72,0,0,1,2.47,2.83c0,1.11-.39,3.31-4.18,3.31h-4.92Zm1.11,5.1h3.81c1.78,0,2.63-.88,2.63-2,0-1.46-.9-2.19-2.63-2.19h-3.81Zm0,5.59h3.81c1.65,0,3.07-.54,3.07-2.4,0-1.48-1.12-2.25-3.07-2.25h-3.81Z" transform="translate(0 -0.09)"/><path class="cls-2" d="M248.14,43.58h1.24l4.56,11.63h-1.19l-1.42-3.62H246l-1.4,3.62h-1.19Zm-1.76,7.07H251l-2.25-6Z" transform="translate(0 -0.09)"/><path class="cls-2" d="M252.88,43.58h9.23v.94h-4.06V55.21h-1.11V44.52h-4.06Z" transform="translate(0 -0.09)"/><path class="cls-2" d="M263.45,43.58h1.11v5.05h6.91V43.58h1.11V55.21h-1.11V49.57h-6.91v5.64h-1.11Z" transform="translate(0 -0.09)"/><path class="cls-2" d="M115.69,66.16h-6.42V62.21h17.54v3.95h-6.42V83.61h-4.7Z" transform="translate(0 -0.09)"/><path class="cls-2" d="M129.21,62.21h16v3.95h-11.3v4.59h10.38v3.66H133.91v5.25h11.55v4H129.21Z" transform="translate(0 -0.09)"/><path class="cls-2" d="M155,62.21h4.83l8,21.4H163l-1.61-4.76h-8l-1.68,4.76h-4.77Zm-.45,13.13h5.55l-2.7-7.86h-.06Z" transform="translate(0 -0.09)"/><path class="cls-2" d="M169.65,62.21h6.62l5,14.72h.06l4.74-14.72h6.62v21.4h-4.4V68.44h-.06L183,83.61h-3.63l-5.24-15h-.06v15h-4.41Z" transform="translate(0 -0.09)"/><path class="cls-2" d="M196.78,62.21h10.07c4.08,0,6.84,1.32,6.84,5.3A4.7,4.7,0,0,1,210.78,72a5.23,5.23,0,0,1,3.93,5.43c0,4.34-3.69,6.2-7.56,6.2H196.78Zm4.71,8.66h4.76c1.65,0,2.88-.75,2.88-2.55,0-2-1.56-2.46-3.24-2.46h-4.4Zm0,9.08h5c1.86,0,3.48-.59,3.48-2.81s-1.38-3.06-3.39-3.06h-5.12Z" transform="translate(0 -0.09)"/><path class="cls-2" d="M223.67,62.21h4.83l8,21.4h-4.88L230,78.85h-8l-1.68,4.76h-4.76Zm-.45,13.13h5.55l-2.7-7.86H226Z" transform="translate(0 -0.09)"/><path class="cls-2" d="M240.82,66.16H234.4V62.21h17.54v3.95h-6.41V83.61h-4.71Z" transform="translate(0 -0.09)"/><path class="cls-2" d="M254.34,62.21h4.71v8.21h8.66V62.21h4.71v21.4h-4.71V74.38h-8.66v9.23h-4.71Z" transform="translate(0 -0.09)"/><path class="cls-2" d="M273.75,62.25h3v.56h-1.18V66h-.66V62.81h-1.17Z" transform="translate(0 -0.09)"/><path class="cls-2" d="M277.18,62.25h.92l1,2.91h0l1-2.91h.9V66h-.62V63.1h0l-1,2.87h-.53l-1-2.87h0V66h-.62Z" transform="translate(0 -0.09)"/><path class="cls-2" d="M74.47,29.48a38.82,38.82,0,1,0,21.3,34.63A38.58,38.58,0,0,0,74.47,29.48ZM56.94,101A36.87,36.87,0,1,1,93.81,64.11,37,37,0,0,1,56.94,101Z" transform="translate(0 -0.09)"/><path class="cls-3" d="M64.07,92.8a4,4,0,0,0,1.63-1.32.27.27,0,0,1,.53,0,5.9,5.9,0,0,0,.45,1.17c.15.23.15.38-.07.49s-.81,0-1.19.26-.85.3-1.15.49a1.48,1.48,0,0,1-.91.2,2.81,2.81,0,0,0-.83.21c-.19,0-.85,0-1.15,0s-.77.12-1,.12-.51-.22-.24-.41a1.58,1.58,0,0,1,.83-.3,2.05,2.05,0,0,0,.94-.34,2.15,2.15,0,0,0,.34-.34l1.14-.07C63.73,92.88,63.5,93,64.07,92.8Z" transform="translate(0 -0.09)"/><path class="cls-3" d="M57.25,78.72c.33.2,1.08.51,1.12.81s-.36,1.21-.82,1.21S55,79.58,55.33,79C55.91,78,56.69,78.4,57.25,78.72Z" transform="translate(0 -0.09)"/><path class="cls-3" d="M81.82,39.25a32.79,32.79,0,0,1,3.42,3.91c-1.1-.33-2.82-.95-3.49-.74a.72.72,0,0,0-.36,1,15.6,15.6,0,0,0,2.44.91c.37.19,1.19.52,1.12,1.11,0,.32-.39.81.06,1.1s1.12.31,1,1.28a2.27,2.27,0,0,0,.61,1.92,10,10,0,0,1,.7,1.87c.19.39-1.13.13-1.32-.3a10.16,10.16,0,0,0-1.32-2.43c-.35-.32-.91,0-.83.33a11,11,0,0,0,1.24,2.47c.46.59,1.68,1,2,1.65S88,54.63,88.2,55a5.12,5.12,0,0,1,1.22,2.78,8.17,8.17,0,0,0,.71,2.48c.15.37-.69.51-1,.25A2.22,2.22,0,0,1,88.39,59a9.55,9.55,0,0,0-1.25-3.87,9.27,9.27,0,0,0-1.67-2,19,19,0,0,1-1.89-1.84,9.25,9.25,0,0,1-1.33-2.39c-.22-.75-1-.57-1.11.1a2.22,2.22,0,0,0,.71,2.15c.82,1,1.11,1.72,1.79,1.87s1,0,1.57.89a25.44,25.44,0,0,1,1.92,3.66c.08.52-1.32.4-1.52-.3a18.86,18.86,0,0,0-1-2.48c-.23-.37-.4-.83-.85-.54s.17,1.17.3,1.52-.67.75-1,.3a11.36,11.36,0,0,1-.84-1.78c-.21-.37-.71-.87-1-.75-.5.24-.17,1.09,0,1.69s-.34.87-.76.55c-.6-.45-.49-1.57-.86-2.09s-1-.82-1-1.34a2,2,0,0,1,.3-1.49,1.07,1.07,0,0,0,.22-1.27,4.43,4.43,0,0,1-.29-1c0-.59.37-.61.52-.9a1.79,1.79,0,0,0,0-1.12c-.1-.33-.43-.79.17-.94a1.61,1.61,0,0,1,1.22.1,8.81,8.81,0,0,0,1.59.69c.29,0,1.38,0,1.19-.88,0-.26-.82-.73-1.12-.58a1.33,1.33,0,0,1-1.22-.07,16,16,0,0,1-1.74-1.68,2.82,2.82,0,0,1,1.16-1.75c.6-.23,1.42-.39,1.19-.91s-1.1-.64-1.32-1-.85-1-1.3-.69a3.61,3.61,0,0,1-1.27.45,1.67,1.67,0,0,0-1,1.12c-.15.6-1.44,3-1.5,3.73,0,.31-1,1-.83,1.42s.45.22.75.3.15.67-.22,1.12a3.6,3.6,0,0,0-.53,1.19c-.18.36-.84.23-1,.59a2.26,2.26,0,0,1-1.06,1.35c-.6-.08-1.23-.31-.76-.75s.38-.9.66-1.24.54-.62.46-.92-.67-.67-.37-1a5.78,5.78,0,0,0,1-1.79c.22-.67,1.42-3.43,1.65-4a6,6,0,0,1,.52-1.56c.29-.36,1.63-2.28,2.53-2.61A25.93,25.93,0,0,1,81.82,39.25Zm8.55,13.58a35.57,35.57,0,0,1,1.69,7.62.75.75,0,0,1-.87-.53c-.14-.56-.56-2.75-.71-3.2s-.65-1.36-.76-1.77-.41-1.52-.56-2-1.09-2.7-1.32-3.29-.42-1.35-.51-1.57-1-1.8-.22-2.22A29.42,29.42,0,0,1,90.37,52.83Z" transform="translate(0 -0.09)"/><path class="cls-3" d="M75.87,34.51l.81.53a11,11,0,0,0-2.29,1.48,27.38,27.38,0,0,0-1,2.88,2,2,0,0,0-.32,1.06,3.41,3.41,0,0,1-.35,1.73,15.26,15.26,0,0,0-.9,2.46c-.17.83.33,1.32-.09,2.06a8.65,8.65,0,0,0-.9,1.6,11.87,11.87,0,0,1-.65,1.35c-.17.41-1.32.82-1.08.08a45.52,45.52,0,0,0,1.43-5.5A36.7,36.7,0,0,1,72,37.79a8.72,8.72,0,0,1,3.2-3.73Z" transform="translate(0 -0.09)"/><path class="cls-3" d="M69,75.9A6.66,6.66,0,0,1,67.73,77a2,2,0,0,0-.57,1.51c0,.57.88,1,1.14,1s.19-.6.07-1.09a.81.81,0,0,1,.65-1c.42-.08.38.45.68,1.39a2,2,0,0,0,1.52,1.43,7.44,7.44,0,0,1,1.74.14c.7.17,1.32.35,1.25.8s.3,1.1.56,1a1.14,1.14,0,0,0,.61-1,5.11,5.11,0,0,0-2-1.77c-.9-.41-1.36-.45-1.93-1.2s-.26-2-.19-3S71,73.93,70.42,74s-.86.3-.81.87S69.36,75.52,69,75.9ZM63.1,79.45c-.84-.18-.69.22-.65.47s.54.69.65.83-.24,1.2.67.84c.23-.1.38.21.6.54a1.31,1.31,0,0,1,.11,1c0,.26.47.4.8.77a3.31,3.31,0,0,0,2.36.72,5.65,5.65,0,0,0,2.58-.47,20.73,20.73,0,0,1,2-.77c.33-.14,1,.19,1.32.06s.18-.63,0-.88a1.19,1.19,0,0,0-1-.29,2.46,2.46,0,0,1-1-.18,1.65,1.65,0,0,0-1.31-.18,6.26,6.26,0,0,1-2.94-.11A2.89,2.89,0,0,1,66,80.14c-.22-.52-.89,0-1.29,0A12.5,12.5,0,0,0,63.1,79.45Zm4.12,8.61a2.76,2.76,0,0,0,.51,1.21c.15.19.71.91,1.12,1a7.81,7.81,0,0,0,1.42-.15.59.59,0,0,0,0-1.17c-.52-.12-1-.25-1.12-1s-.12-1-.86-1C67.91,87,67.17,87.05,67.22,88.06Zm3.84-1.89a8.44,8.44,0,0,1,2.32-.1,2,2,0,0,1,.8.87c0,.12.63,1,.4,1.42a2,2,0,0,0-.4,1.21c0,.41.51.65,1.07.41s.25-.61,1-1c.27-.13.18-1.6.18-1.79A3.82,3.82,0,0,0,75.91,86c-.18-.21-.62-.47-.66-.69a.78.78,0,0,0-.66-.66,12.82,12.82,0,0,0-2.9.42,2.07,2.07,0,0,0-1.1.9C70.48,86.1,70.55,86.39,71.06,86.17Zm17.75-12.7c-.56-.37-.71-1.16-.86-1.38a10,10,0,0,0-1.49-1.86,25.35,25.35,0,0,0-2.5-2,5.57,5.57,0,0,0-3.33-.3c-1.29.11-3.49,1.55-3.86,1.62s-.8-.49-1.25-.71-.72-.08-1.21-.23A6.08,6.08,0,0,1,73.13,68a1.27,1.27,0,0,0-1.32,0c-.46.19.07.56.6.75s1.25.23,1.59.64-.19.6-.56.64a1.72,1.72,0,0,1-1-.41c-.26-.19-.67.45-.52.75s.52.34.83.45,1.43-.17,1.7,0,.13.65,0,.88a1,1,0,0,0,.41,1c.3.19-2.11-.08-2.2.29-.19.8.62.82,1.14.76a21.13,21.13,0,0,1,2.27-.16,8,8,0,0,1,5,1.47c.76.45,1.49,2.19,1.57,3.43s-.6,1.73-.72,2.75a15.69,15.69,0,0,0,.74,4.06c.15.49,1,.21.91-.05s.06-.47.32-.81.4-.38.17-.9a4.76,4.76,0,0,1-.41-2.06c0-.94.27-.89.57-2.63s-.61-3.52-1-4.58-2.65-1.92-3.06-2.18a3.9,3.9,0,0,1-1-.91c-.15-.22-.53-.11-.87-.41s.44-.62.67-.75c.5-.26,1.1-.83,1.26-.72.47.32-.09.88.17,1s.87-.44,1.11-.26,1,.66.21.86.08.59.43.55c.19,0,1-.6,1.35-.3s-.32.82.25,1a5.69,5.69,0,0,0,1.06.2c.53,0,.46.53.65.53A4.12,4.12,0,0,1,87,73a6.72,6.72,0,0,1,1.86,1.47c.46.53,1-.12,1.23-.38s-.1-.79-.29-.75S89.13,73.69,88.81,73.47Zm-16.74-14c-.3.38,0,1.28.26,1.2a2.68,2.68,0,0,0,1-.5,1.58,1.58,0,0,1,1.36-.44,7.75,7.75,0,0,1,2.17.91,1.23,1.23,0,0,1,.67,1c0,.58-.64.6-1.08.87s-.61.45-1,.41-1.17-.41-1.59-.26-.79.53-.41.83.92.16,1.34.12.28.89-.26,1-.77.92-.35.86c.79-.11.91.43.64.65s-.9.36-1,.51.28.56.66.56a3.56,3.56,0,0,0,1.22-.51,1.06,1.06,0,0,1,1.32.2c.36.31,1.17-.6,2.08-.75s1.63-.43,1.9-.4.41.87.64.9,1.21,0,1.78.1,1.46.6,1.92.44c.67-.23.08-.82,0-1s-.08-.49-.19-.76-.53-.56-.57-.94.34-1.5-.64-1.81-1.46-.25-1.49-.47,0-.77-.18-.81-2.77-.21-3.07-.3c-.63-.19-1.59-1.69-2.61-2s-1.77-.58-2.61-.11A2.87,2.87,0,0,1,72.07,59.51Zm-9.62,2.26c.2-.24-.4-.48-.92,0a1.09,1.09,0,0,0,.3,1.64,2.83,2.83,0,0,0,2,.16c.58-.2,1-.49,1-1.2,0-.31-.44-.52-.82-.64s-.45.15-.38.3.45.36,0,.81a1,1,0,0,1-1.4,0C61.94,62.48,62.33,61.9,62.45,61.77Zm-13.11,0a.88.88,0,0,0,.07,1.42,3.46,3.46,0,0,0,2.37.2,1.56,1.56,0,0,0,.93-1.32.92.92,0,0,0-.64-.72c-.38-.15-.46.3-.3.6s.3,1-.69,1.06-.94-.7-.79-1.13C50.52,61.25,50.14,61.17,49.34,61.82Zm9.3,12.32c-.51-.47-.26-2.08-.94-2.12a2.17,2.17,0,0,0-1,.46c-.23.15-.46-.08-1.14,0s-.3.74-.11,1.24c.3.79,1.09.42,1.32.49s.27.34.57.34.53-.15.91.3C58.78,75.46,59.4,74.81,58.64,74.14Zm-12.72-15c-.79.64-1.17.93-1,1.6s1.29,1,1.67,1,.87-.83,1.09-1.32.51-1,.25-1.26A1.44,1.44,0,0,0,45.92,59.13Zm3.46,5a3.79,3.79,0,0,1-1.19-.37c-.53-.23-.67.45-.44.6a5.78,5.78,0,0,0,2,.44,10.61,10.61,0,0,0,1.93,0c.3,0,.85-.21.89.44s-.78.45-1.09.46-1.43,0-2-.13a8.94,8.94,0,0,1-2.65-.77c-.36-.25-.67-.73-1.2-.88s-1,.82-.56,1c.25.11.75.4.31.84a1.35,1.35,0,0,0,0,1.75c.23.23.93,1.22,1.15,1.45s.81.11,1,.26a6.17,6.17,0,0,1,1.14,1c.22.3.68-.15,1.06-.46s.75.31.6.61a7.85,7.85,0,0,0-.53,1c-.3.68-1,.6-1.44.6a.36.36,0,0,0-.37.45,1.91,1.91,0,0,1,.3.68c0,.23-.53.45-1.06.45a7.68,7.68,0,0,1-1.44-.22c-.38-.08-.27.45.07.75s.69,1,1.37,1.21A1.89,1.89,0,0,0,48.36,75c.42-.28,1.13-.63,1.13-1.06s-.29-.81.36-1.21.89.31,1.2.53.87,0,1.32-.41.37-1.43.27-1.92-.61-.4-1-.75.27-1.06.27-1.06,1.4-.79,1.32-1.51a4.12,4.12,0,0,1,.31-2c.13-.28-.49-.32-.07-1s1.28-1.15,1.35-1.75-.4-.86-.85-1-.54.51-.64,1.08A1.51,1.51,0,0,1,52,64.05,14.45,14.45,0,0,1,49.38,64.09Zm4.94,19.42a3.08,3.08,0,0,1-1,.55c-.37.18-.1,1.32.41,1.27a1.51,1.51,0,0,1,1.12.7,4.32,4.32,0,0,0,.86,1,6.16,6.16,0,0,0,1.63.85,13.07,13.07,0,0,0,3.43.24c.64,0,.14-.6-.23-.64a19.48,19.48,0,0,1-3-.59,2.24,2.24,0,0,1-1-1c-.12-.26-.66-.32-.89-.7a5.87,5.87,0,0,1-.51-1.55C55.16,83.24,54.56,83.27,54.32,83.51Zm17.33,7.67c-.29.26-.54.24-1,.46a4.93,4.93,0,0,1-1.69.77,2.54,2.54,0,0,1-1.15,0c-.19-.11-.27-1.22-.35-1.63a2.93,2.93,0,0,0-.79-1.12c-.15-.15-.11-.22-.33-.59s-.6-.64-.79-.56a2.6,2.6,0,0,1-.6.22c-.26,0-.71-.3-.94-.63s-1-.45-1.35-.45,0,.64.27.82a4.47,4.47,0,0,1,.63.9c.12.18.64.26,1,.29a.74.74,0,0,1,.75.71c0,.45-.63.45-.82.64a.83.83,0,0,1-.84.13c-.33-.12-.24-.7-.61-1.11A6.59,6.59,0,0,0,61,89a4.8,4.8,0,0,0-2.81.41,5.94,5.94,0,0,1-1.84.75,4.18,4.18,0,0,0-1.07-.06c-.48.07-1,1.18-1.22,1.52s-.57,1,0,1.16a3.83,3.83,0,0,0,1.82-.27c.45-.11,1.38-.6,1.83-.67s1-.34,1.58-.49a2.13,2.13,0,0,0,1.1-.66c.3-.26.73,0,1,.13a4.14,4.14,0,0,0,1.12.33c.45.07.41.37.29.49a2,2,0,0,1-1,.38,10.42,10.42,0,0,0-1.22.5c-.4.12-1.29.52-1.48.61-.42.19-1.72.91-1.87,1s-.65.09-1,.24a.5.5,0,0,0,0,.91,3.22,3.22,0,0,0,2,.16,19.71,19.71,0,0,1,3.59-.2A7.65,7.65,0,0,0,65.05,95a2.72,2.72,0,0,1,1.57-.29c.52,0,.93.15,1.16,0a5.45,5.45,0,0,1,1.48-.78,17.91,17.91,0,0,0,1.92-.68c.38-.19.63-.71.92-1s.71-.25,1.16-.46.39-.15.36-.33a2,2,0,0,0-.41-.62,4.51,4.51,0,0,1,0-1.22c0-.26-1.09-.4-1,.15A2,2,0,0,1,71.65,91.18ZM47.56,92.86a2,2,0,0,0-2.05.67c-.26.56.4,1.16,1.17,1.42.59.19,1.47.25,1.78-.31S48.11,93.09,47.56,92.86Zm-1-2.33c.29-.11,1-.3,1.46-.42.23-.06.62,0,.77-.19a7.66,7.66,0,0,0,.79-1.29,1.59,1.59,0,0,1,.89-.81c.45-.22.5-.8.67-1.07s1-.12,1-.77-1.16-.49-1.68-.45a6.54,6.54,0,0,0-1.88.61,10.77,10.77,0,0,0-1.47.7,2.81,2.81,0,0,0-1,.86,1.68,1.68,0,0,1-.45.82.9.9,0,0,1-1.15,0c-.3-.33-.29-.74-.58-.89s-.65-.23-.76-.44-.16-.5-.37-.59-.52,0-.63-.37-.07-.76-.43-1.1-.51-1.33-.81-1.47-.86-.26-.86-.56a.82.82,0,0,1,.58-.82c.4-.08.33-.81.44-1.11A3.6,3.6,0,0,1,42.83,80c.67-.18,1-.36,1.19-.26s0,.71.18.82a6.08,6.08,0,0,0,2.38.33C47,80.69,48,80,48.5,80s.82.26.64.63-1,.7-1.26,1.07a5,5,0,0,1-.71.81s-.41-.07-.85-.11-1.64.07-2,1a2.61,2.61,0,0,0-.11,1.74c.07.25.26,1,.33,1.18s.6.18.82,0a1.31,1.31,0,0,0,.45-1c-.08-.3-.41-1.52.1-1.77s1,0,1,.2.06.63.36.56a6.15,6.15,0,0,1,1.17-.26c.3,0,1,.29,1.32.26,1.28-.16,1.39-.62,1.52-1,.36-1,1.13-1.83,2-1.51s1.19-.26,1.56-.41a.84.84,0,0,1,.93.23,14.48,14.48,0,0,1,1.19,2.21,4.49,4.49,0,0,0,1.3,1.48c.33.18,1,.23,1.07.38a3.23,3.23,0,0,0,1.21.77,11.56,11.56,0,0,0,2.15-.25,2.55,2.55,0,0,1,1.19.74,5.85,5.85,0,0,0,.71.66c.29.26.74.44.7,0a3.66,3.66,0,0,0-.62-1.93c-.45-.41-.69-.84-1-.84a6.47,6.47,0,0,1-1.28-.35,4.64,4.64,0,0,1-1.45-.74c-.33-.29-.11-1-.09-1.29a4.24,4.24,0,0,0-.33-1.71,11.22,11.22,0,0,1-.65-2.22c-.17-.65-.06-1.58-.46-1.72a5,5,0,0,0-2-.26c-.75.12-1.06.24-1.43.05a2.12,2.12,0,0,0-1.42-.5,1.42,1.42,0,0,1-1.12-.2,1.06,1.06,0,0,0-1,0c-.37.18-.64.58-.31.65s.74,0,.93.26a6.47,6.47,0,0,0,.55.81c.26.26.63.52.52.67s-.59.4-.7.33-.72-.48-1.2-.74-1-.68-1.42-.53c-.3.1-.35.84-.61,1s-.67.35-.89.1-.42-1.15-.68-1.26a2,2,0,0,0-1.68,0,5.31,5.31,0,0,1-1.52.51c-.46.1-1,.15-1.52.3a4.93,4.93,0,0,1-2,.56c-.71,0-2.07-.09-2.18.35s-.37.71-.23,1a.55.55,0,0,1-.89.56c-.52-.45-.29-1.55-.18-1.92a21.74,21.74,0,0,1,1.1-3.37c.29-.33,1-1.73,1.57-2.07.4-.25,1-.21,1.11.16a3,3,0,0,1,0,1.62c-.15.19-.44,0-.82.26a2.45,2.45,0,0,0-.94,1.39c0,.34-.09.53.46.49s.71-.19.86-.08a1.23,1.23,0,0,0,1.12,0c.48-.22,1.32-.22,1.25-1.52a5.66,5.66,0,0,1,.07-2.36c.23-.52.6-1.07,0-1.66s-1-1.19-1.7-1.27c-1.4-.13-.93.59-1.19.78a2.43,2.43,0,0,1-1.57.27c-.63-.11-1.32-.11-1.62.35s-.64.79-.71,1.27a3.79,3.79,0,0,1-.78,1.63,2.62,2.62,0,0,0-.55,1.2,14.46,14.46,0,0,0-.35,1.71,22.3,22.3,0,0,0,.94,3.33,12,12,0,0,0,.93,2.47.77.77,0,0,0,.92.07c.34-.14.78-.22,1,.15a10.25,10.25,0,0,1,.1,2,2.83,2.83,0,0,0,.6,1.1c.19.18.08.4.23.7s.37.4.74.55.74.22.89.56a1.6,1.6,0,0,0,.63.92c.45.29,1,.66,1,1s-.48.59-1.07.78-1.52.22-1.71.55-.39.62.09.76a5.82,5.82,0,0,0,2.72-.16,6.32,6.32,0,0,0,2-.9C45.89,91.24,46.3,90.64,46.6,90.53ZM30.29,84.62c-.11.83,1.53.46,2.14.46s1.1.61,1.82,1a3.49,3.49,0,0,1,1.36,1.16,16.78,16.78,0,0,0,3,2c1,.45.87-.12.31-.8S36.53,85.2,36,84.82c-.32-.24-.78-1.87-1.57-2s-.41.2-1.58-.2-1.76-.38-1.78.05.44.77.08.93A1.31,1.31,0,0,0,30.29,84.62Zm-.91-1.42c.68-.71.95-2.06,1.55-3s.91-1.25,1.33-1.47.53-.49.34-.91,0-.41.68-.79,1.1-.5,1.33-1.26c.15-.5,1.25-2.4.81-2.57s-.88-.49-.81-.86.71-.39,1-.58.23-.42-.11-.64a3.1,3.1,0,0,0-1.7-.19c-.46.07-.68.64-1.1,1s-.73.1-1.25.79a14.39,14.39,0,0,0-.91,2.79c-.22.56-.34.41-.57.79s.46.3.65.71.19.73-.19.76c-1.25.07-.5.58-.58,1.19s-1.25,2.86-1.44,3.41S28.85,83.32,29.38,83.2Zm-2.89-4.36c.36.19,0,1.18.4,1.58s.86-.45,1-1.16c.13-.88-.31-2.29.12-2.93a3.32,3.32,0,0,0,.85-1.72A3.09,3.09,0,0,1,29.67,73c.32-.42,1.17-1.11,1.33-1.52s-.13-.76-.69-.61A11,11,0,0,0,28,72.4a22.77,22.77,0,0,0-2,2.31c-.37.66.43.88,0,1.7-.18.31-.11.76-.27,1C25.31,78.14,25.78,78.73,26.49,78.84Zm7-8.85a.91.91,0,0,1,.82-.21,14.22,14.22,0,0,0,4.13.41c1.49-.21,3.13-1,3.39-1.44a7,7,0,0,1,.94-1.18c.22-.25.13-1.07-.16-1.18s-1-.44-1.35-.08a1.19,1.19,0,0,1-1.11.31,8.45,8.45,0,0,0-2.25.29,21.9,21.9,0,0,0-3.38,1.31,7.56,7.56,0,0,0-1.49,1.28C32.85,69.71,33.23,70.17,33.52,70ZM61,39.06c-1.41,3.95-1.57,4.07-1.49,5.3s.87,1.32,1.36.58.72-1.33,1.36-1.4c.44,0,.53.61.44,1.44s.56.25,1-.33a9.88,9.88,0,0,0,.69-3.4c.08-1,.27-1.74.32-2.55s.21-1.82-.21-1.82-.76.15-.76-.2c0-.55,1.41-1.76,1.88-2.13.66-.5.16-1.53-.66-1.06S62.41,35.12,61,39.06ZM50.19,29.73c.31-.06.7-.11.7-.11S52,31.06,52.5,31.14c.74.11,1.68.22,2.25.29a2.83,2.83,0,0,1,2,1.85c.66,1.85-.77,4.19-.77,4.19a4.36,4.36,0,0,0-.21,2c.1,1.25,0,2.05.53,2.05s.57-2.46,1-3.37a7.87,7.87,0,0,0,.61-2.47,25.19,25.19,0,0,0-.1-4,2.21,2.21,0,0,0-1.75-1.5,4.72,4.72,0,0,1-2.3-.94s.87-.08,2.21-.13,2.45,0,2.45,0a1.74,1.74,0,0,1,.36.81,26.64,26.64,0,0,1,.05,4.24c-.05.76.75-.13,1,0,.4.36-.5,1.94-.67,3.34s-.76,2.66-.26,2.74S60.2,38,61,36.07s.69-1.77.69-2-.24-1,.26-1.36a10.55,10.55,0,0,1,3.09-.56c.71-.07,1.11-.44,1-.76s-1.41-.49-1.73-.45c-.51,0-1.55.3-1.8,0a3.87,3.87,0,0,1,.05-1.46,35.64,35.64,0,0,1,5.32,1.28,37.49,37.49,0,0,1,5.2,2.14A1,1,0,0,0,73,33a3.4,3.4,0,0,1-2.52.75c-.86,0-2.41-.43-3.23,1.38a23,23,0,0,0-1.7,6.28c-.16,1.73-1,3.44-.58,3.57s1.22-1.21,1.52-2.38a11.17,11.17,0,0,1,.83-2.24c.24-.45,1.07-1.17,1.07-.11s-.63,2.05-1.13,3.36-.56,2-1.09,2.44c-.87.74-1.15,1.48-.5,1.4s1.27,0,1,.49-1,.82-.63,1.15,1.25.18,1.34-.39.06-1.66.39-2,.74.1.58.66c-.26.87.66.47.35,1.48-.12.39-.72,1.14-.64,1.39s1,.78-1,1a13.3,13.3,0,0,1-3.8-1.17c-.92-.5-1.68-1.35-2.39-1.61s-2.4-.76-2.64-.86a1.22,1.22,0,0,1-.79-1A11.93,11.93,0,0,0,56,44.53a5.23,5.23,0,0,1-1.16-3.94c.25-2,.25-5.26-.49-6.25s-3-2.46-3.47-3.28a3,3,0,0,0-1.44-1.18Zm-6.93,2.13c.82-.37,1.7-.67,1.7-.67a1.48,1.48,0,0,0,.22,1.07c.42.71.7,1.8,1.23.77A8.24,8.24,0,0,0,47,30.52s.3-.1.55-.16l.64-.19c-.12,1,.07,3,.06,3.68a1.86,1.86,0,0,0,.64,1.6,2.15,2.15,0,0,1,.69,1.66c-.05.86-.86.51-.67,1.67.12.78.54.58.87.62s.43,1.31.25,1.47-.5.38-.42.79.25,1.64.74,1.64.75-.74.75-1.15.16-4.68.33-5.42a2.91,2.91,0,0,0-.74-2.1c-.42-.57-1.58-1.27-1.42-2s.37-1.52.61-1.42c.46.2.39,1.07.56,1.31s2.79,2.12,3.34,2.86.47,3.58.45,4.07-.73,1-.81.53c-.16-.85.32-2.12-.51-2.17-.57,0-.74.82-.66,2.13s.37,4.11.71,4.36.74.36.9.86.42,1.21,1,1.35,1.33.37.87.62a7.56,7.56,0,0,1-2.23.86,6.34,6.34,0,0,0-3.14,1.62,7.17,7.17,0,0,0-2,3,3.89,3.89,0,0,1-.82,1.72,7.87,7.87,0,0,1-2,1.26c-.53.25-1,.92-.2.76s2.43-1,2.6-.09-1.36.87-1.9,1-1.61.74-1.07,1.27c.38.38,1.47-.65,2.23-.61s1.86.53,2.6.61a9.71,9.71,0,0,0,2.85,0c.53-.16,2.72-1.64,3.83-1.56A8.33,8.33,0,0,1,59,58a7.65,7.65,0,0,0,4.1,1c2.16,0,3.61-.89,3.81-.36s-.26.63-.3,1.17.1,1-.15,1.21-1.13-.06-1.37-.31-.56-.62-.89-.62-1.44.08-1.36.33.41.41,1.15.41c.58,0,1.65,1.35,2,1.52s1.24.82,1.07,1.15-.37.33-.66.2-.43-.59-.85-.51-.8.76-1.3.92a4.64,4.64,0,0,1-2.31.09,3.77,3.77,0,0,1-1.78-1.12c-.48-.59-.86-1.43-1.44-2.34s-1.4-1.92-1.9-1.84-.66,1.15-.57,2.09.57,1.64.41,2.06-.8,1-.83,1.68c0,1,.63.55.63,1s-.11,1.05-.44,1-1-.19-1,.33.25.44.7.53.4.71.49,1a1,1,0,0,0,.52.72c.62.27.72-.35,1.37-.25a5.59,5.59,0,0,1,1.12.37,1.59,1.59,0,0,0,1.46-.27,1.42,1.42,0,0,0-.22-1.24c-.25-.33-.45-1,0-1.07s.78.55.87.8a4.43,4.43,0,0,0,.71,1.11c.27.31.57.39.94.76a1.82,1.82,0,0,1,.53.94c.12.4,1,.54,1.29.86s.24,1,.66,1.57.86.94.45,1.43-1.53-.82-2.31-1.64-1.65-1.85-2.23-1.85-.58.62-.33,1.77.37,1.81.54,1.89.44-.05.61,0,.75,1.2,1.49,1.69a2.81,2.81,0,0,0,2.32.63c.74-.24.49-.87.65-1A3.63,3.63,0,0,1,68,75.25c.41,0,.5-1.3.5-1.55s-.34-.63-.25-1,.51-.69.51-.86a6.09,6.09,0,0,1,.3-1.71A6.81,6.81,0,0,0,69.69,67a4.71,4.71,0,0,1,.16-2.1A3.38,3.38,0,0,0,70.1,63a10.82,10.82,0,0,1-.27-1.59c0-.37-.58-.91-.48-1.61a14.44,14.44,0,0,0,.41-1.89,4.73,4.73,0,0,0-.3-2.33,4.07,4.07,0,0,0-1.17-1.65c-.79-.28-.58-.7-.91-.95s-.54-.65-.13-.74.71.09,1.28-.12.58-.9.91-.9,1.38.24,1.29.49-.37,1.09.86.4c.36-.2.58-.44,1-.2s0,.66-.21.91-1.11.49-1.11.65-.17.58.33.58a2.31,2.31,0,0,0,1.28-.54c.16-.16.28-.53.62-.53s.24.33,1,.25,1-.41,1.36-1.73a50.25,50.25,0,0,0,.86-5.35c.17-1.48.26-2.57.31-2.86a2.08,2.08,0,0,1,.44-1c.17-.16.66-1.31,1-1.56s1.07-.16.74.58-.82,1.09-.87,1.64.3,1.23.21,1.64-.9.5-.82,1.15S78,48.1,78,48.51s-.78.58-.61,1.15.32,1,.07,1.44a13.58,13.58,0,0,0-.75,1.66c-.08.33-.2,1.92-.51,2.06-.54.24-1.32,0-1.71.31s-.5.82-.91.82a1.82,1.82,0,0,0-1.07.49c-.33.25-.58,1-.09.78a9.25,9.25,0,0,1,2-1,5.3,5.3,0,0,0,1.2-.08,6.12,6.12,0,0,0,1.48-.74,2,2,0,0,0,.6-1.19c0-.17.84-.09.84.24s.25,1.41.09,1.73a4.1,4.1,0,0,1-.76.83s-1.18.45-1.1.86,1,.2,1.53,0,1.28-.78,1.44-.62-.53,1.07-.29,1.89,1.82,1,2.4.74.65-.56.89-.64a3.27,3.27,0,0,1,1.53,0c.41.17,1,.35,1,.6s-.82.45-.66.86.46.41,1,.33a4.6,4.6,0,0,1,1.74.25c.66.16,2.72.74,3.56,1a2.05,2.05,0,0,1,1,2c0,1.14,0,2.4-.38,2.42-.61,0-.66-1.47-1.08-2.29S89,63,88.8,63.13s-.45.46.13,1.12.86,1,.86,1.47a3.3,3.3,0,0,0,.15,1.09c.1.27.6.73.51,1.09s-1.26.38-1.59.09-.18-2.43-.43-2.84-1-2-1.69-2.3-1.36,0-1.12.74.42,1.72.83,2a3.63,3.63,0,0,1,.82.82l-.08.49a5.49,5.49,0,0,0,.17,1.48c.16.33.66.57.74.82a9.6,9.6,0,0,0,.91,2c.41.58.25.81.83.81s.75-.45.92-1c.07-.26.47-.37.89-.42a28.54,28.54,0,0,1-1.46,5.36,24.81,24.81,0,0,1-2.06,4.62c-.26-.3-.51-.4-.43-.92,0-.34.44-1.17.33-1.44s-.31-.29-.69-.86a5.75,5.75,0,0,1-.64-1.59,2.29,2.29,0,0,0-.57-.86,1.09,1.09,0,0,1-.38-.3c-.19-.19-.64-.72-1.25-.42a.8.8,0,0,0-.23.8,12.57,12.57,0,0,0,1,1.43,5,5,0,0,1,.18,3c-.16.53.42.71.47,1.27s-.56.62-.56.85.48,1.11,0,1.71a1.62,1.62,0,0,0,.14,1.61A13,13,0,0,1,84.57,86c-.67.82-1,1.18-1,1.18a1.3,1.3,0,0,0-1.36-.48c-.91.14-.45-1-.49-1.23s-.8-.35-.87-.91a3,3,0,0,0-.49-1c-.23-.26-.75-.49-.75-.78s.38-.33.46-.74a4.78,4.78,0,0,0-.21-1.39c-.07-.41-.32-2,.08-2.22s.52.33.66.74.75.5.83.24a4.36,4.36,0,0,0-.08-1.6c-.15-.59-1.3-1.26-1.63-1.37A2.54,2.54,0,0,1,79,76c-.33-.22-2.56-.14-3.39-.32a8.35,8.35,0,0,1-2.25-.85c-.41-.22-.39-.26-.91.11-.45.74-.12.71.48,1.17s.41,1.18.44,1.7.71.69,1,.91.54.67.91.86.77.14,1.17.58.26,1,.54,1.55c.38.69,1,.48,1.11,1,.09.3-.14.74-.18,1s.27,1.58.27,2.54-.75,1.81-.82,2.37.14.48.4,1-1.16.63-1.31.81a10,10,0,0,1-1.13,1.13A4.35,4.35,0,0,0,74,93.48c-.1,1-4.11,1.18-4.22,3.35,0,0-.78.31-2,.71s-2.17.63-2.17.63c-.83-.18-1.66-.49-2-.49-.63,0-5.39.4-6,.35s-1.26-.79-1.52-.94a5.79,5.79,0,0,0-2-.8c-1-.18-1.46-.33-1.54-.55s.22-.6.3-.89a1.13,1.13,0,0,0-.34-.89,3.63,3.63,0,0,1-.29-1.47,6.61,6.61,0,0,1,.76-2c.3-.6.64-.64.94-.9s1.25-.5,1.15-.91a2,2,0,0,0-.81-1c-.45-.28-1.22.1-1.88.36a4.8,4.8,0,0,0-1.83,1.51c-.15.34-.43,1.21-.7,1.8a4,4,0,0,0,.38,2.56c.11.33.21.92.32,1.36s.55.74.85,1a1.53,1.53,0,0,1,.33,1c0,.18-.11.88-.1,1.46,0,0-1-.15-2-.37s-1.65-.4-1.65-.4a2.59,2.59,0,0,0-.8-1.11,23,23,0,0,0-3.15-1.42c-1.36-.64-2.87-1.23-3.21-1.35a1.39,1.39,0,0,0-1.5.28L38,93.6c-.66-.41-1.16-.78-1.16-.78a8.05,8.05,0,0,0,.11-1.09c0-.78-1-1.23-1.5-1.48-1.68-.86-.89-1.57-1.52-2.08s-.88,1-.88,1.59a36.85,36.85,0,0,1-5.61-6.7,28.53,28.53,0,0,1-3.24-6.36c.12-.23.24-.53.38-.81.3-.6-1.27-1-.64-2,.31-.49-.83-.9-.81-1.26a2.3,2.3,0,0,1,1-1.3,9.38,9.38,0,0,1,2.53-1,11.46,11.46,0,0,1,2.8-.36c.33,0,1.1-.64,1.38-.92s.69,0,1.09-.23a13.43,13.43,0,0,0,1.94-1.54c.56-.57-.34-1.21-.78-1.38a6.78,6.78,0,0,0-4,.53,12.44,12.44,0,0,0-3.11,2.13,17.51,17.51,0,0,1-2.28,1.87c-.19.22-.87,1-.87,1-.05-.2-.27-1.44-.3-1.62-.14-.73-.26-1.39.51-2a17.36,17.36,0,0,1,2-1.26A23.86,23.86,0,0,1,27.19,65a14.29,14.29,0,0,1,5.54-.46c1.06.14,1.08.15.72-.6a1.88,1.88,0,0,0-1.84-1c-.58,0-1.88-.24-2.42-.24s-.17-.94.45-1.17a5.23,5.23,0,0,1,3.29.21,2.43,2.43,0,0,0,2.2.45,2.77,2.77,0,0,0,2.26-2.11,1.45,1.45,0,0,1,2.1-1,1.38,1.38,0,0,1,.4,1.48c-.2.23-.74.19-1.18.33-.23.08-.52.34-.41.64.2.51-.22.6-.54.85s-.6.88-.82,1-.63-.15-.9-.15-.61.75-.61.75-.15.86.81.44c.33-.14.88-.31,1.08-.11a.89.89,0,0,0,1.22,0,.77.77,0,0,1,1.05.23,1,1,0,0,0,1.25.17c.32-.28,1.12.17,1.48,0s.38-2,.38-2.56.64-1.73.57-2.11c-.12-.6-.08-1.39-.72-1.35s-.77-.15-1.37-.91a2.36,2.36,0,0,0-1.25-1c-.79-.31-1.25-1.4-1.55-2s-.94-.76-1.4-1a6.69,6.69,0,0,1-1.35-1.21c-.46-.45-.76-.43-1.36-.81s-.7-.69-.47-1.15a5.45,5.45,0,0,1,.94-1.46,7.43,7.43,0,0,0,1.36-2.38c.15-.6-.78-.93-1-.55s-.79,1.29-1.17,2a9.14,9.14,0,0,1-1.48,2.33c-.86.85-1.46-.19-.91-.91s1.62-2.94,2.74-4.81c.49-.81-.56-1.53-1-1S32,46,31.6,46.53,30.12,50,29.81,50.42a2.28,2.28,0,0,1-1.57.76c-.23-.07-.13-.63,0-1a25.14,25.14,0,0,1,1.88-3.39,27.44,27.44,0,0,0,2.69-4.85c.38-1.26-.61-1.21-.92-.6s-.9,1.17-1.16,1.76-1.69,3-2.29,4.1-1.91,3.65-2.08,4c-.27.53-1.65.63-1.37-.2a25.44,25.44,0,0,1,2.54-4.7,1.41,1.41,0,0,0,.2-1.59A35,35,0,0,1,30.59,41c1.6-1.77,3.27-3.25,3.27-3.25a.45.45,0,0,1,.42.29c.4.9,1.09,1.35,1.83,1a1.08,1.08,0,0,1,1.56.56c.38.77.74,1.13.66,1.88C38.17,42.8,37,46.9,37.8,49.8c.4,1.47.22,2.12,1.85,4.11.86,1.06,2.62,2.45,2.84,2.75s.3.83.61.68,0-1.43-.65-2.11S39,52.67,38.71,50a10.24,10.24,0,0,1,.37-5,7.18,7.18,0,0,0,.37-2.34s0-.84.51-.74.54,1.5.54,2,.1,1.51.1,1.51a7.12,7.12,0,0,1,.45,1.36c0,.3-.45,1.35-.3,1.8s.76.83,1,1.21-.15,1,.16,1.36S43.1,53,43.63,53.12s2.16.72,2.46.42,1-1.16-.15-1.47-2.92-1-3.37-2.57-.33-4.86-2.37-9-3.38-3.7-4.09-4c-.23-.09-.41-.16-.55-.2s.7-.55,1.26-.94S38,34.6,38,34.6c.35.33.7.63.82.59s.57-1,.9-.93c.62.12.84,1.23.92,1.64s.67.82.89,1.12A26.21,26.21,0,0,1,43,41.57c.16.83,1.06,7.09,1.48,7.64.74,1,1.53,1,1-.57A20.35,20.35,0,0,1,45,41.21a8.92,8.92,0,0,0-.56-4.5,1.29,1.29,0,0,1,.16-1.47c.24-.16,1.2.46,1.37,1.12s.31,4.45.47,5,.6.88.75,1.31,0,1.07.24,1.57a19.73,19.73,0,0,0,1.69,2.63c.51.56,1.06.76,1.2.32S48.64,45,48.23,42.89c-.26-1.36-.87-2.42-.87-3.29a9.5,9.5,0,0,1-.25-1.09,23,23,0,0,0-.24-2.93c-.25-.49-2-1.85-2.35-1.69-.87.36-1.94-.58-2.36-.94a4.27,4.27,0,0,0-.54-.35S42.48,32.2,43.26,31.86Zm36,59.39A34.77,34.77,0,0,1,76,93.65a1.78,1.78,0,0,1,.45-1.74c.41-.36,2.09-1.33,2.3-1.5a4.7,4.7,0,0,0,1.37-1.57c.13-.35.15-1,.29-1.23s1.22-.26,1.11.26c-.07.34.28.61.61.83A27.25,27.25,0,0,1,79.29,91.25ZM54.61,99.09c-1-.06-1.38-.11-1.38-.11.13-.57.45-1.3,1-1.3,1.23,0,1.57.91,2,1.48C56.17,99.16,55.57,99.15,54.61,99.09ZM22.05,59.88a39.39,39.39,0,0,1,1.32-6.18c.45.22,1.05.41,1.2,0a1,1,0,0,1,1-.78,14.19,14.19,0,0,1,2.3-.22c.35,0,.87.46,1.19.09a.82.82,0,0,1,1.33.64c0,.3-.7.84.2,1.56.51.41,1.19.44,1.32,1.17.21,1.06.67,1.11,1,1.92.23.59,1.28.59,1.36-.09s.37-1.85.72-1.81,1.6.54,1.74,1-.61.8-.68,1.18-.65,1.34-.5,1.86-.45.53-.83.38a9.94,9.94,0,0,0-2.1-.56c-1.05-.2-2.79.73-3.21.81s-1,0-.91-.5,0-.87-.27-1-1.48.05-1-1c.61-1.27-.71-1.62-1.06-.86-.54,1.15-.76,1.16-1.1,1-.58-.23-.32-.9-.12-1.43.66-1.76-.71-1.36-1-.8a16.37,16.37,0,0,1-.42,2.47c-.28.58.32,1.09.31,1.65,0,.76-.66,2.82-.68,3.19,0,.6,1.37.49,1.37-.26,0-.34.32-1.55,1-1.41.35.07.58-.79.66-1.16a.72.72,0,0,1,.91-.51c.34.1.24.67.2,1.21A5.92,5.92,0,0,1,27,63.09a9.23,9.23,0,0,1-2.08,1.82c-.3.14-2.8,1.2-3.05,1.4A40.24,40.24,0,0,1,22.05,59.88Z" transform="translate(0 -0.09)"/><path class="cls-2" d="M133.1,114l1.66,7.43h-3.71l-1.8-7.43h-4.34l-1.31,7.43h-3.72l2.84-16.09a2.68,2.68,0,0,1,2.91-2.48h9.9c1.66,0,2.34.83,2,2.48l-1.09,6.19a2.67,2.67,0,0,1-2.91,2.47Zm-.11-3.71.65-3.71h-7.42l-.66,3.71Z" transform="translate(0 -0.09)"/><path class="cls-2" d="M136.17,121.42l2.84-16.1a2.68,2.68,0,0,1,2.91-2.48h9.91c1.65,0,2.33.83,2,2.48L151,121.42h-3.72l.88-5h-7.43l-.87,5Zm13.76-14.87h-7.42l-1.09,6.19h7.42Z" transform="translate(0 -0.09)"/><path class="cls-2" d="M166.22,106.57H158.8l-2,11.14h8.67l-.66,3.71h-9.9c-1.65,0-2.33-.83-2-2.47l2.4-13.62a2.68,2.68,0,0,1,2.91-2.48h9.91Z" transform="translate(0 -0.09)"/><polygon class="cls-2" points="173.27 102.77 169.99 121.33 166.28 121.33 169.55 102.77 173.27 102.77"/><path class="cls-2" d="M171.43,121.42l2.84-16.1a2.68,2.68,0,0,1,2.91-2.48h9.91c1.65,0,2.33.83,2,2.48l-2.84,16.1h-3.71l2.61-14.87h-7.43l-2.62,14.87Z" transform="translate(0 -0.09)"/><path class="cls-2" d="M204.1,112.75,203,119a2.68,2.68,0,0,1-2.91,2.47h-9.91c-1.65,0-2.33-.83-2-2.47l2.41-13.62a2.68,2.68,0,0,1,2.91-2.48h12.38l-.66,3.72H194.05l-2,11.14h7.42l.66-3.72h-4.94l1.89-3.71h4.94c1.65,0,2.33.83,2,2.47" transform="translate(0 -0.09)"/><path class="cls-4" d="M216.66,114l-.66,3.72h8.66l-.65,3.71h-9.9c-1.65,0-2.33-.83-2-2.47l2.4-13.62a2.68,2.68,0,0,1,2.91-2.48h9.91l-.66,3.72H218l-.66,3.71h4.95L220.37,114Z" transform="translate(0 -0.09)"/><path class="cls-4" d="M237.83,121.42h-9.91c-1.65,0-2.33-.83-2-2.47l2.83-16.1h3.72l-2.62,14.86h8.66Z" transform="translate(0 -0.09)"/><path class="cls-4" d="M244.29,114l-.66,3.72h8.67l-.66,3.71h-9.9c-1.65,0-2.33-.83-2-2.47l2.4-13.62a2.68,2.68,0,0,1,2.91-2.48h9.9l-.65,3.72H245.6l-.66,3.71h4.95L248,114Z" transform="translate(0 -0.09)"/><path class="cls-4" d="M266.84,106.57h-7.43l-2,11.14h8.66l-.66,3.71h-9.9c-1.65,0-2.33-.83-2-2.47l2.4-13.62a2.69,2.69,0,0,1,2.92-2.48h9.9Z" transform="translate(0 -0.09)"/><polygon class="cls-4" points="283.78 102.77 283.13 106.48 278.18 106.48 275.56 121.33 271.84 121.33 274.46 106.48 269.51 106.48 270.17 102.77 283.78 102.77"/><path class="cls-4" d="M295.16,114l1.66,7.43h-3.71l-1.8-7.43H287l-1.31,7.43h-3.72l2.84-16.09a2.68,2.68,0,0,1,2.91-2.48h9.91c1.65,0,2.33.83,2,2.48l-1.09,6.19a2.67,2.67,0,0,1-2.91,2.47Zm-.11-3.71.65-3.71h-7.42l-.66,3.71Z" transform="translate(0 -0.09)"/><polygon class="cls-4" points="305.22 102.77 301.95 121.33 298.23 121.33 301.51 102.77 305.22 102.77"/><path class="cls-4" d="M317.14,106.57h-7.42l-2,11.14h8.67l-.66,3.71h-9.9c-1.65,0-2.33-.83-2-2.47l2.4-13.62a2.68,2.68,0,0,1,2.91-2.48H319Z" transform="translate(0 -0.09)"/><path class="cls-4" d="M43.85,100.67c-6.59,13.73-13.58,27.46-13.58,27.46s9-11.9,19.25-25.91A38.23,38.23,0,0,1,43.85,100.67Z" transform="translate(0 -0.09)"/><path class="cls-2" d="M68.52,27.05C74.75,14.17,81.31,1.39,82,.1h0C81.12,1.21,72.63,12.53,63,25.77A40.47,40.47,0,0,1,68.52,27.05Z" transform="translate(0 -0.09)"/><path class="cls-4" d="M78.43,11l-3.72,7.37h0a48.64,48.64,0,0,1,14.39,8.8h11.48A57,57,0,0,0,78.43,11Z" transform="translate(0 -0.09)"/><path class="cls-4" d="M56.94,112.4l-.79,0,2.28-9.47c-.5,0-1,0-1.49,0a39.42,39.42,0,0,1-4.09-.22l-6.45,8.52c-1.85,2.45-3.66,4.83-5.41,7.11a56.87,56.87,0,0,0,60-18.63H89.7A48.56,48.56,0,0,1,56.94,112.4Z" transform="translate(0 -0.09)"/><path class="cls-4" d="M90.84,98.64q-.57.56-1.14,1.08H101c.29-.36.58-.71.86-1.08Z" transform="translate(0 -0.09)"/><path class="cls-2" d="M37.4,108.32h0A48.7,48.7,0,0,1,56.94,15c.39,0,.77,0,1.16,0L55.68,25.31l1.26,0c1.18,0,2.35.07,3.51.17L72.88,9a56.93,56.93,0,0,0-39,106.72Z" transform="translate(0 -0.09)"/></svg>